<svg width="678" height="197" viewBox="0 0 678 197" fill="none" xmlns="http://www.w3.org/2000/svg">
<path d="M12.0159 178V123.523H45.0133V129.438H18.0861V172.085H44.8576V178H12.0159ZM14.8175 152.941V147.026H40.6551V152.941H14.8175ZM93.1577 178.778C90.408 178.778 87.8138 178.389 85.3753 177.611C82.9368 176.833 80.7059 175.665 78.6825 174.109C76.659 172.552 74.8691 170.633 73.3126 168.35L77.5151 163.68C79.9536 167.157 82.444 169.595 84.9862 170.996C87.5803 172.397 90.4858 173.097 93.7025 173.097C96.0372 173.097 98.1644 172.708 100.084 171.93C102.004 171.151 103.508 170.062 104.598 168.661C105.687 167.26 106.232 165.652 106.232 163.836C106.232 162.643 106.025 161.579 105.61 160.645C105.246 159.711 104.676 158.881 103.897 158.155C103.119 157.429 102.159 156.78 101.018 156.209C99.8765 155.639 98.5535 155.12 97.0489 154.653C95.5962 154.186 93.9619 153.719 92.146 153.252C89.5 152.629 87.1653 151.903 85.1419 151.073C83.1703 150.191 81.4841 149.127 80.0833 147.882C78.7344 146.637 77.6967 145.21 76.9703 143.602C76.2959 141.942 75.9586 139.996 75.9586 137.765C75.9586 135.638 76.3996 133.666 77.2816 131.85C78.2155 130.034 79.4866 128.478 81.095 127.181C82.7034 125.832 84.5971 124.794 86.7762 124.068C88.9552 123.342 91.29 122.978 93.7803 122.978C96.582 122.978 99.0724 123.368 101.251 124.146C103.482 124.872 105.454 125.962 107.166 127.414C108.878 128.867 110.357 130.605 111.602 132.629L107.322 136.831C106.232 135.119 104.987 133.64 103.586 132.395C102.237 131.15 100.733 130.216 99.0724 129.593C97.464 128.919 95.674 128.582 93.7025 128.582C91.4197 128.582 89.3962 128.971 87.6322 129.749C85.9201 130.527 84.5712 131.617 83.5854 133.018C82.5996 134.367 82.1067 135.923 82.1067 137.687C82.1067 138.984 82.3402 140.152 82.8071 141.189C83.2741 142.175 84.0004 143.057 84.9862 143.835C86.0239 144.562 87.3469 145.236 88.9552 145.859C90.6155 146.429 92.587 146.974 94.8699 147.493C97.5678 148.116 99.9803 148.868 102.107 149.75C104.287 150.632 106.128 151.695 107.633 152.941C109.189 154.134 110.357 155.535 111.135 157.143C111.965 158.752 112.38 160.593 112.38 162.669C112.38 165.885 111.576 168.713 109.968 171.151C108.359 173.538 106.102 175.406 103.197 176.755C100.343 178.104 96.9971 178.778 93.1577 178.778ZM153.191 178V129.438H137.626V123.523H175.449V129.438H159.261V178H153.191ZM224.528 178.778C220.689 178.778 217.135 178.104 213.866 176.755C210.65 175.354 207.822 173.408 205.384 170.918C202.997 168.428 201.129 165.496 199.78 162.124C198.483 158.7 197.835 154.964 197.835 150.917C197.835 146.87 198.483 143.161 199.78 139.788C201.129 136.364 202.997 133.407 205.384 130.916C207.822 128.374 210.65 126.429 213.866 125.08C217.135 123.679 220.689 122.978 224.528 122.978C228.419 122.978 231.973 123.679 235.19 125.08C238.459 126.429 241.286 128.374 243.673 130.916C246.111 133.407 247.979 136.364 249.276 139.788C250.625 143.161 251.3 146.87 251.3 150.917C251.3 154.912 250.625 158.622 249.276 162.046C247.979 165.418 246.111 168.376 243.673 170.918C241.286 173.408 238.459 175.354 235.19 176.755C231.973 178.104 228.419 178.778 224.528 178.778ZM224.528 172.786C227.486 172.786 230.209 172.267 232.7 171.229C235.242 170.14 237.421 168.609 239.237 166.638C241.053 164.666 242.454 162.357 243.44 159.711C244.477 157.013 244.996 154.082 244.996 150.917C244.996 147.701 244.477 144.769 243.44 142.123C242.454 139.425 241.053 137.091 239.237 135.119C237.421 133.147 235.242 131.617 232.7 130.527C230.209 129.438 227.486 128.893 224.528 128.893C221.571 128.893 218.821 129.438 216.279 130.527C213.789 131.617 211.635 133.147 209.82 135.119C208.004 137.091 206.603 139.425 205.617 142.123C204.631 144.769 204.138 147.701 204.138 150.917C204.138 154.082 204.631 157.013 205.617 159.711C206.603 162.357 208.004 164.666 209.82 166.638C211.635 168.609 213.789 170.14 216.279 171.229C218.821 172.267 221.571 172.786 224.528 172.786ZM323.377 186.016L303.454 159.789L308.357 156.521L328.202 182.514L323.377 186.016ZM304.31 178.778C300.471 178.778 296.917 178.104 293.648 176.755C290.431 175.354 287.604 173.408 285.165 170.918C282.779 168.428 280.911 165.496 279.562 162.124C278.265 158.7 277.616 154.964 277.616 150.917C277.616 146.87 278.265 143.161 279.562 139.788C280.911 136.364 282.779 133.407 285.165 130.916C287.604 128.374 290.431 126.429 293.648 125.08C296.917 123.679 300.471 122.978 304.31 122.978C308.201 122.978 311.755 123.679 314.972 125.08C318.241 126.429 321.068 128.374 323.455 130.916C325.893 133.407 327.761 136.364 329.058 139.788C330.407 143.161 331.082 146.87 331.082 150.917C331.082 154.912 330.407 158.622 329.058 162.046C327.761 165.418 325.893 168.376 323.455 170.918C321.068 173.408 318.241 175.354 314.972 176.755C311.755 178.104 308.201 178.778 304.31 178.778ZM304.31 172.786C307.267 172.786 309.991 172.267 312.482 171.229C315.024 170.14 317.203 168.609 319.019 166.638C320.835 164.666 322.236 162.357 323.221 159.711C324.259 157.013 324.778 154.082 324.778 150.917C324.778 147.701 324.259 144.769 323.221 142.123C322.236 139.425 320.835 137.091 319.019 135.119C317.203 133.147 315.024 131.617 312.482 130.527C309.991 129.438 307.267 128.893 304.31 128.893C301.353 128.893 298.603 129.438 296.061 130.527C293.57 131.617 291.417 133.147 289.601 135.119C287.785 137.091 286.385 139.425 285.399 142.123C284.413 144.769 283.92 147.701 283.92 150.917C283.92 154.082 284.413 157.013 285.399 159.711C286.385 162.357 287.785 164.666 289.601 166.638C291.417 168.609 293.57 170.14 296.061 171.229C298.603 172.267 301.353 172.786 304.31 172.786ZM382.535 178.545C378.437 178.545 374.779 177.637 371.562 175.821C368.345 173.953 365.803 171.411 363.935 168.194C362.12 164.926 361.212 161.242 361.212 157.143V123.523H367.282V156.443C367.282 159.504 367.956 162.254 369.305 164.692C370.654 167.131 372.47 169.05 374.753 170.451C377.088 171.852 379.682 172.552 382.535 172.552C385.545 172.552 388.216 171.852 390.551 170.451C392.938 169.05 394.806 167.131 396.155 164.692C397.503 162.254 398.178 159.504 398.178 156.443V123.523H404.015V157.143C404.015 161.242 403.081 164.926 401.213 168.194C399.397 171.411 396.855 173.953 393.586 175.821C390.37 177.637 386.686 178.545 382.535 178.545ZM438.418 178V123.523H471.416V129.438H444.489V172.085H471.26V178H438.418ZM441.22 152.941V147.026H467.058V152.941H441.22Z" fill="#2196F3"/>
<path d="M15.0528 102V30.32H55.3984C61.6789 30.32 66.9696 31.0368 71.2704 32.4704C75.6395 33.904 78.9163 35.9179 81.1008 38.512C83.3536 41.1061 84.48 44.144 84.48 47.6256C84.48 51.7899 83.3536 55.3056 81.1008 58.1728C78.848 60.9717 75.4347 62.9173 70.8608 64.0096L71.168 62.1664C74.1717 62.8491 76.9707 63.9413 79.5648 65.4432C82.1589 66.9451 84.2411 68.8907 85.8112 71.28C87.4496 73.6011 88.2688 76.4683 88.2688 79.8816C88.2688 84.2507 87.3472 87.8688 85.504 90.736C83.6608 93.5349 81.2032 95.7536 78.1312 97.392C75.1275 99.0304 71.8165 100.225 68.1984 100.976C64.6485 101.659 61.1669 102 57.7536 102H15.0528ZM35.5328 84.592H57.9584C59.6651 84.592 61.1669 84.3872 62.464 83.9776C63.7611 83.568 64.7851 82.9195 65.536 82.032C66.3552 81.1445 66.7648 79.984 66.7648 78.5504C66.7648 76.9803 66.2528 75.7856 65.2288 74.9664C64.2048 74.1472 62.976 73.5669 61.5424 73.2256C60.1088 72.8843 58.7435 72.7136 57.4464 72.7136H35.5328V84.592ZM35.5328 57.8656H53.76C55.7397 57.8656 57.4123 57.6949 58.7776 57.3536C60.1429 56.944 61.1669 56.3637 61.8496 55.6128C62.6005 54.8619 62.976 53.872 62.976 52.6432C62.976 50.9365 62.0885 49.7077 60.3136 48.9568C58.6069 48.1376 56.3541 47.728 53.5552 47.728H35.5328V57.8656ZM102.382 102L136.89 30.32H155.63L190.036 102H167.815L150.202 65.7504C149.383 63.9755 148.632 62.4053 147.95 61.04C147.335 59.6064 146.789 58.2411 146.311 56.944C145.902 55.6469 145.492 54.384 145.082 53.1552C144.673 51.8581 144.297 50.5269 143.956 49.1616H148.154C147.813 50.5952 147.403 51.9947 146.926 53.36C146.516 54.6571 146.038 55.9541 145.492 57.2512C144.946 58.5483 144.366 59.8795 143.751 61.2448C143.137 62.6101 142.454 64.112 141.703 65.7504L124.193 102H102.382ZM119.073 92.1696L125.729 77.1168H166.996L170.478 92.1696H119.073ZM208.553 102V30.32H230.671V83.1584H272.86V102H208.553ZM284.582 102L319.09 30.32H337.83L372.236 102H350.015L332.402 65.7504C331.583 63.9755 330.832 62.4053 330.15 61.04C329.535 59.6064 328.989 58.2411 328.511 56.944C328.102 55.6469 327.692 54.384 327.282 53.1552C326.873 51.8581 326.497 50.5269 326.156 49.1616H330.354C330.013 50.5952 329.604 51.9947 329.126 53.36C328.716 54.6571 328.238 55.9541 327.692 57.2512C327.146 58.5483 326.566 59.8795 325.951 61.2448C325.337 62.6101 324.654 64.112 323.903 65.7504L306.393 102H284.582ZM301.273 92.1696L307.929 77.1168H349.196L352.678 92.1696H301.273ZM390.753 102V30.32H411.335L455.777 75.888L451.886 74.4544C451.476 71.4507 451.169 68.7883 450.964 66.4672C450.759 64.1461 450.554 62.0299 450.35 60.1184C450.213 58.2069 450.111 56.3979 450.042 54.6912C449.974 52.9845 449.906 51.2437 449.838 49.4688C449.838 47.6939 449.838 45.7483 449.838 43.632V30.32H471.137V102H450.35L402.529 51.824L410.004 54.2816C410.277 55.4421 410.482 56.6368 410.618 57.8656C410.823 59.0261 410.994 60.3232 411.13 61.7568C411.335 63.1221 411.506 64.7605 411.642 66.672C411.847 68.5152 411.95 70.7339 411.95 73.328C412.018 75.9221 412.052 78.96 412.052 82.4416V102H390.753ZM541.906 103.024C535.489 103.024 529.549 102.137 524.088 100.362C518.627 98.5867 513.848 96.0267 509.752 92.6816C505.656 89.3365 502.482 85.4112 500.229 80.9056C497.976 76.3317 496.85 71.2459 496.85 65.648C496.85 60.0501 497.976 54.9984 500.229 50.4928C502.55 45.9189 505.724 41.9595 509.752 38.6144C513.78 35.2693 518.524 32.7093 523.986 30.9344C529.447 29.1595 535.386 28.272 541.803 28.272C546.036 28.272 550.132 28.7157 554.091 29.6032C558.119 30.4224 561.874 31.6512 565.355 33.2896C568.905 34.8597 572.011 36.7029 574.674 38.8192L562.078 55.6128C560.713 54.384 559.041 53.1893 557.061 52.0288C555.081 50.8683 552.76 49.9125 550.098 49.1616C547.435 48.4107 544.329 48.0352 540.779 48.0352C538.185 48.0352 535.625 48.4107 533.099 49.1616C530.642 49.9125 528.389 51.0389 526.341 52.5408C524.293 53.9744 522.654 55.8176 521.426 58.0704C520.197 60.3232 519.582 62.9515 519.582 65.9552C519.582 68.8224 520.231 71.3483 521.528 73.5328C522.825 75.7173 524.6 77.5605 526.853 79.0624C529.106 80.5643 531.632 81.6907 534.43 82.4416C537.298 83.1243 540.267 83.4656 543.339 83.4656C546.821 83.4656 549.893 82.9877 552.555 82.032C555.218 81.0763 557.539 79.9157 559.518 78.5504C561.566 77.1851 563.341 75.9563 564.843 74.864L575.186 91.6576C573.138 93.296 570.407 95.0027 566.994 96.7776C563.58 98.5525 559.723 100.054 555.422 101.283C551.122 102.444 546.616 103.024 541.906 103.024ZM530.846 127.293L529.72 117.974C530.949 117.974 532.246 117.872 533.611 117.667C534.977 117.462 536.137 117.121 537.093 116.643C538.049 116.165 538.526 115.551 538.526 114.8C538.526 114.117 538.253 113.537 537.707 113.059C537.229 112.65 536.547 112.342 535.659 112.138C534.84 111.933 533.85 111.83 532.69 111.83L530.539 110.192L537.4 99.5424H547.538L542.622 106.096C546.309 106.369 549.005 107.461 550.712 109.373C552.487 111.353 553.374 113.639 553.374 116.234C553.374 118.555 552.658 120.432 551.224 121.866C549.859 123.367 548.016 124.528 545.694 125.347C543.442 126.166 541.018 126.713 538.424 126.986C535.83 127.259 533.304 127.361 530.846 127.293ZM586.682 102L621.19 30.32H639.93L674.336 102H652.115L634.502 65.7504C633.683 63.9755 632.932 62.4053 632.25 61.04C631.635 59.6064 631.089 58.2411 630.611 56.944C630.202 55.6469 629.792 54.384 629.382 53.1552C628.973 51.8581 628.597 50.5269 628.256 49.1616H632.454C632.113 50.5952 631.704 51.9947 631.226 53.36C630.816 54.6571 630.338 55.9541 629.792 57.2512C629.246 58.5483 628.666 59.8795 628.051 61.2448C627.437 62.6101 626.754 64.112 626.003 65.7504L608.493 102H586.682ZM603.373 92.1696L610.029 77.1168H651.296L654.778 92.1696H603.373Z" fill="black"/>
</svg>
